<svg width="301" height="245" viewBox="0 0 301 245" fill="none" xmlns="http://www.w3.org/2000/svg">
<path d="M0 213.154C0 215.689 2.01346 217.628 4.47435 217.628C7.00982 217.628 9.02327 215.689 9.02327 213.154V199.209C11.7825 202.863 15.8839 206.144 22.4463 206.144C31.7679 206.144 40.7166 198.761 40.7166 185.711V185.562C40.7166 172.437 31.6933 165.129 22.4463 165.129C16.0331 165.129 11.9316 168.41 9.02327 172.512V170.051C9.02327 167.515 7.00982 165.502 4.47435 165.502C1.93889 165.502 0 167.515 0 170.051V213.154ZM20.2837 198.314C14.1688 198.314 8.79956 193.243 8.79956 185.711V185.562C8.79956 178.03 14.1688 172.959 20.2837 172.959C26.3987 172.959 31.5442 177.955 31.5442 185.562V185.711C31.5442 193.466 26.4732 198.314 20.2837 198.314Z" fill="white"/>
<path d="M59.8742 206.144C65.9145 206.144 70.016 203.608 72.7006 200.402V201.893C72.7006 203.907 74.4904 205.696 77.1004 205.696C79.5613 205.696 81.5002 203.832 81.5002 201.371V181.982C81.5002 176.837 80.1579 172.661 77.2495 169.827C74.4904 166.993 70.0906 165.427 64.1994 165.427C59.0539 165.427 55.2507 166.322 51.522 167.739C50.1797 168.261 49.0611 169.678 49.0611 171.318C49.0611 173.406 50.7763 175.047 52.8643 175.047C53.3118 175.047 53.7592 174.972 54.2812 174.823C56.7421 173.854 59.5759 173.257 63.0062 173.257C69.3449 173.257 72.7752 176.24 72.7752 181.833V182.803C69.7177 181.833 66.5857 181.162 62.1859 181.162C52.566 181.162 45.9291 185.338 45.9291 193.839V193.988C45.9291 201.893 52.4915 206.144 59.8742 206.144ZM62.4096 199.581C58.0844 199.581 54.7286 197.419 54.7286 193.616V193.466C54.7286 189.365 58.159 186.904 63.9756 186.904C67.5551 186.904 70.6126 187.575 72.9243 188.47V191.155C72.9243 196.151 68.3754 199.581 62.4096 199.581Z" fill="white"/>
<path d="M109.011 206.218C115.573 206.218 119.824 203.981 123.329 200.625C124.149 199.954 124.597 198.985 124.597 197.792C124.597 195.629 122.882 193.839 120.719 193.839C119.675 193.839 118.78 194.361 118.258 194.809C115.797 196.897 113.038 198.314 109.458 198.314C102.523 198.314 97.676 192.721 97.676 185.711V185.562C97.676 178.701 102.523 173.034 109.086 173.034C112.665 173.034 115.201 174.45 117.512 176.389C118.109 176.837 119.078 177.284 120.197 177.284C122.509 177.284 124.373 175.494 124.373 173.183C124.373 171.691 123.553 170.573 122.956 170.051C119.6 167.142 115.35 165.129 109.16 165.129C97.3031 165.129 88.6527 174.525 88.6527 185.711V185.86C88.6527 197.046 97.3031 206.218 109.011 206.218Z" fill="white"/>
<path d="M145.126 205.995C147.512 205.995 149.376 205.622 151.315 204.951C152.583 204.429 153.702 203.086 153.702 201.446C153.702 199.358 151.912 197.717 149.898 197.717C149.6 197.717 148.705 197.941 147.661 197.941C144.604 197.941 142.814 196.524 142.814 193.019V173.705H149.898C152.061 173.705 153.851 171.99 153.851 169.827C153.851 167.664 152.061 165.949 149.898 165.949H142.814V159.238C142.814 156.777 140.8 154.763 138.34 154.763C135.804 154.763 133.791 156.777 133.791 159.238V165.949H132.299C130.137 165.949 128.421 167.664 128.421 169.827C128.421 171.99 130.137 173.705 132.299 173.705H133.791V194.436C133.791 203.086 138.489 205.995 145.126 205.995Z" fill="white"/>
<path d="M178.719 206.218C190.875 206.218 199.823 196.897 199.823 185.711V185.562C199.823 174.301 190.949 165.129 178.869 165.129C166.788 165.129 157.839 174.45 157.839 185.711V185.86C157.839 197.046 166.713 206.218 178.719 206.218ZM178.869 198.314C171.859 198.314 166.862 192.572 166.862 185.711V185.562C166.862 178.701 171.486 173.034 178.719 173.034C185.804 173.034 190.8 178.776 190.8 185.711V185.86C190.8 192.646 186.177 198.314 178.869 198.314Z" fill="white"/>
<path d="M208.043 201.222C208.043 203.757 210.057 205.696 212.518 205.696C215.053 205.696 217.067 203.757 217.067 201.222V154.987C217.067 152.526 215.053 150.513 212.518 150.513C209.982 150.513 208.043 152.526 208.043 154.987V201.222Z" fill="white"/>
<path d="M262.342 170.051C262.342 167.515 260.254 165.502 257.793 165.502C255.258 165.502 253.244 167.515 253.244 170.051V188.172C253.244 194.287 249.59 197.866 244.37 197.866C239.001 197.866 235.943 194.436 235.943 188.321V170.051C235.943 167.515 233.93 165.502 231.394 165.502C228.934 165.502 226.92 167.515 226.92 170.051V191.006C226.92 200.178 232.066 206.144 240.94 206.144C247.055 206.144 250.709 202.937 253.244 199.209V201.222C253.244 203.757 255.332 205.696 257.793 205.696C260.329 205.696 262.342 203.683 262.342 201.222V170.051Z" fill="white"/>
<path d="M285.617 206.069C293.82 206.069 300.234 201.968 300.234 193.69V193.541C300.234 186.457 293.746 183.847 288.004 182.057C283.38 180.565 279.13 179.372 279.13 176.464V176.315C279.13 174.078 281.143 172.437 284.648 172.437C287.407 172.437 290.688 173.481 293.895 175.122C294.492 175.42 294.939 175.569 295.685 175.569C297.773 175.569 299.413 174.003 299.413 171.915C299.413 170.349 298.518 169.156 297.251 168.485C293.447 166.471 289.048 165.278 284.872 165.278C277.042 165.278 270.852 169.827 270.852 177.284V177.433C270.852 184.965 277.34 187.352 283.156 188.992C287.78 190.409 291.956 191.453 291.956 194.51V194.66C291.956 197.27 289.719 198.91 285.841 198.91C282.262 198.91 278.309 197.643 274.506 195.107C273.984 194.809 273.313 194.585 272.567 194.585C270.479 194.585 268.913 196.226 268.913 198.239C268.913 199.731 269.659 200.849 270.628 201.371C275.177 204.503 280.621 206.069 285.617 206.069Z" fill="white"/>
<path d="M146.807 230.917C147.319 230.394 147.883 230.015 148.518 229.769C149.154 229.513 149.799 229.39 150.466 229.39C151.132 229.39 151.778 229.513 152.413 229.769C153.048 230.025 153.612 230.405 154.125 230.917L155.744 232.495L158.891 229.298L157.312 227.729C156.369 226.787 155.283 226.069 154.073 225.608C152.905 225.126 151.696 224.88 150.466 224.88C149.236 224.88 148.006 225.126 146.807 225.608C145.628 226.069 144.552 226.776 143.609 227.719C142.666 228.662 141.958 229.728 141.497 230.917C141.036 232.096 140.811 233.315 140.811 234.576C140.811 235.806 141.036 237.016 141.497 238.194C141.958 239.383 142.666 240.449 143.609 241.392C144.552 242.335 145.618 243.052 146.796 243.544H146.807C148.006 244.006 149.225 244.241 150.466 244.241C151.706 244.241 152.905 244.006 154.084 243.555C155.293 243.063 156.369 242.345 157.312 241.402L158.891 239.824L155.744 236.626L154.114 238.204C153.633 238.717 153.079 239.096 152.444 239.342C151.808 239.598 151.152 239.721 150.455 239.721C149.02 239.721 147.831 239.219 146.796 238.194C146.284 237.682 145.905 237.118 145.659 236.483C145.402 235.837 145.269 235.191 145.269 234.535C145.269 233.879 145.392 233.233 145.648 232.588C145.905 231.952 146.274 231.409 146.786 230.927L146.807 230.917Z" fill="white"/>
<path d="M176.622 227.709C175.679 226.766 174.593 226.059 173.383 225.587C172.215 225.106 171.006 224.86 169.765 224.86C168.525 224.86 167.306 225.106 166.106 225.587C164.928 226.049 163.851 226.756 162.908 227.699C161.966 228.642 161.258 229.708 160.797 230.897C160.336 232.075 160.11 233.285 160.11 234.515C160.11 235.745 160.346 236.975 160.797 238.174C161.258 239.363 161.966 240.429 162.908 241.372C163.821 242.294 164.876 242.991 166.055 243.483C167.234 243.975 168.474 244.211 169.765 244.211C171.057 244.211 172.297 243.965 173.476 243.483C174.654 242.991 175.71 242.294 176.622 241.372L178.201 239.793L175.013 236.606L173.435 238.184C172.605 239.004 171.672 239.496 170.575 239.67C170.319 239.701 170.063 239.721 169.817 239.721C169.222 239.721 168.638 239.619 168.074 239.404L178.201 229.277L176.622 227.699V227.709ZM164.589 234.525C164.589 233.09 165.092 231.901 166.117 230.866C166.947 230.046 167.869 229.574 168.925 229.421C169.191 229.38 169.448 229.369 169.704 229.369C170.309 229.369 170.893 229.472 171.467 229.677C171.139 230.005 170.739 230.384 170.268 230.845C169.581 231.542 168.853 232.27 168.084 233.039C167.347 233.777 166.629 234.494 165.942 235.181C165.522 235.601 165.184 235.939 164.897 236.226C164.702 235.683 164.6 235.119 164.6 234.525H164.589ZM165.819 230.569L166.065 230.815L165.809 230.569H165.819Z" fill="white"/>
<path d="M183.93 234.525C183.93 233.807 184.053 233.151 184.309 232.547C184.596 231.901 184.965 231.358 185.416 230.907C185.908 230.425 186.441 230.056 187.056 229.8C187.692 229.523 188.358 229.38 189.075 229.38C189.793 229.38 190.459 229.513 191.095 229.8H191.105C191.74 230.056 192.273 230.425 192.724 230.897V230.917C193.216 231.368 193.575 231.911 193.831 232.536V232.557C194.108 233.162 194.251 233.807 194.251 234.525V244.221H198.761V234.525C198.761 233.182 198.505 231.922 197.982 230.763C197.49 229.595 196.804 228.57 195.912 227.709C195.02 226.817 193.985 226.131 192.806 225.639C191.658 225.126 190.398 224.87 189.055 224.87C187.733 224.87 186.482 225.126 185.293 225.649C184.125 226.141 183.09 226.828 182.198 227.719C181.337 228.58 180.65 229.605 180.128 230.774C179.636 231.932 179.39 233.192 179.39 234.525V244.231H183.899V234.535L183.93 234.525Z" fill="white"/>
<path d="M200.135 234.566C200.135 235.796 200.37 237.005 200.821 238.184C201.283 239.373 201.99 240.439 202.933 241.382C203.876 242.325 204.942 243.042 206.12 243.534H206.131C207.33 243.995 208.55 244.231 209.79 244.231C211.03 244.231 212.229 243.995 213.408 243.544C214.617 243.052 215.693 242.335 216.636 241.392L218.215 239.814L215.068 236.616L213.449 238.194C212.967 238.707 212.414 239.086 211.778 239.342C211.143 239.598 210.487 239.721 209.79 239.721C208.345 239.721 207.166 239.219 206.131 238.194C205.618 237.682 205.239 237.108 204.983 236.483C204.726 235.847 204.603 235.191 204.603 234.535C204.603 233.879 204.726 233.233 204.983 232.588C205.239 231.963 205.608 231.409 206.12 230.927C206.633 230.405 207.197 230.025 207.832 229.779C208.478 229.523 209.113 229.4 209.779 229.4C210.446 229.4 211.081 229.523 211.727 229.779C212.362 230.036 212.926 230.405 213.439 230.927L215.058 232.495L218.205 229.298L216.626 227.729C215.683 226.787 214.597 226.069 213.387 225.608C212.219 225.126 211.009 224.88 209.769 224.88C208.529 224.88 207.309 225.126 206.11 225.608C204.931 226.069 203.855 226.776 202.912 227.719C201.969 228.662 201.262 229.728 200.801 230.917C200.34 232.096 200.114 233.315 200.114 234.576L200.135 234.566ZM203.24 228.016L203.035 227.801L203.251 228.016H203.24Z" fill="white"/>
<path d="M219.435 234.525C219.435 235.847 219.68 237.098 220.162 238.276C220.675 239.455 221.361 240.49 222.222 241.372C223.114 242.263 224.149 242.97 225.318 243.483C226.496 243.975 227.747 244.221 229.069 244.221C230.391 244.221 231.662 243.975 232.82 243.483C233.989 242.96 235.024 242.263 235.916 241.372C236.807 240.48 237.494 239.445 237.986 238.266C238.499 237.087 238.765 235.837 238.765 234.515C238.765 233.172 238.509 231.922 237.986 230.763C237.494 229.585 236.807 228.56 235.916 227.699C235.024 226.807 233.989 226.12 232.81 225.628C231.662 225.116 230.401 224.849 229.059 224.849C227.737 224.849 226.486 225.106 225.307 225.628C224.139 226.12 223.094 226.807 222.212 227.699C221.351 228.56 220.664 229.585 220.142 230.753C219.65 231.911 219.404 233.172 219.404 234.504L219.435 234.525ZM223.903 234.525C223.903 233.807 224.026 233.151 224.283 232.547C224.57 231.901 224.938 231.358 225.389 230.907C225.871 230.425 226.425 230.056 227.06 229.8H227.07C227.706 229.513 228.372 229.38 229.09 229.38C229.807 229.38 230.473 229.513 231.098 229.8H231.109C231.744 230.056 232.277 230.425 232.728 230.897V230.917C233.21 231.368 233.579 231.901 233.835 232.536V232.557C234.112 233.162 234.255 233.807 234.255 234.525C234.255 235.242 234.112 235.909 233.835 236.544C233.579 237.19 233.21 237.743 232.728 238.225C232.277 238.676 231.734 239.045 231.088 239.332C230.453 239.588 229.787 239.711 229.059 239.711C228.331 239.711 227.665 239.588 227.029 239.332C226.394 239.045 225.84 238.686 225.359 238.225C224.908 237.743 224.539 237.19 224.252 236.544C223.996 235.909 223.873 235.242 223.873 234.525H223.452H223.903Z" fill="white"/>
<path d="M240.62 228.488C240.323 229.216 240.18 229.984 240.18 230.804C240.18 231.624 240.323 232.413 240.62 233.151V233.172C240.948 233.869 241.368 234.504 241.901 235.058C242.434 235.601 243.049 236.021 243.757 236.349H243.777C244.515 236.657 245.304 236.8 246.124 236.8H253.545C254.006 236.8 254.324 236.934 254.611 237.21C254.898 237.497 255.021 237.805 255.021 238.235C255.021 238.696 254.888 239.014 254.611 239.301C254.324 239.578 254.006 239.711 253.545 239.711H241.994V244.221H253.545C254.365 244.221 255.134 244.067 255.851 243.77C256.579 243.442 257.224 243.011 257.757 242.479C258.311 241.925 258.752 241.279 259.049 240.572C259.367 239.834 259.531 239.045 259.531 238.225C259.531 237.405 259.367 236.636 259.049 235.919V235.898C258.752 235.171 258.321 234.535 257.768 234.002C257.235 233.469 256.599 233.059 255.872 232.762H255.851C255.144 232.434 254.375 232.27 253.555 232.27H246.134C245.714 232.27 245.407 232.137 245.12 231.87C244.833 231.553 244.7 231.225 244.7 230.804C244.7 230.374 244.833 230.066 245.11 229.779C245.397 229.492 245.704 229.369 246.134 229.369H257.727V224.86H257.306H246.134C245.315 224.86 244.515 225.024 243.777 225.352C243.07 225.649 242.445 226.059 241.922 226.592C241.389 227.125 240.958 227.76 240.641 228.498L240.62 228.488Z" fill="white"/>
<path d="M279.835 225.29V224.87H275.745V234.525C275.745 235.242 275.602 235.909 275.325 236.544C275.069 237.19 274.71 237.743 274.228 238.225C273.777 238.676 273.234 239.045 272.588 239.332C271.953 239.588 271.277 239.711 270.559 239.711C269.842 239.711 269.175 239.588 268.54 239.332C267.925 239.045 267.382 238.686 266.9 238.225C266.449 237.743 266.08 237.19 265.793 236.554C265.537 235.919 265.414 235.253 265.414 234.525V224.87H260.904V234.525C260.904 235.837 261.15 237.098 261.642 238.276C262.154 239.455 262.841 240.49 263.702 241.382C264.594 242.274 265.629 242.981 266.797 243.493C267.976 243.985 269.227 244.231 270.549 244.231C271.871 244.231 273.142 243.985 274.3 243.493C275.469 242.981 276.504 242.274 277.395 241.382C278.287 240.49 278.974 239.445 279.466 238.276C279.978 237.098 280.245 235.847 280.245 234.525V224.87H279.825V225.29H279.835Z" fill="white"/>
<path d="M301 217.439H296.49V224.86H291.345C290.033 224.86 288.772 225.116 287.594 225.628C286.415 226.12 285.38 226.807 284.498 227.699C283.607 228.56 282.91 229.585 282.387 230.763C281.895 231.922 281.649 233.172 281.649 234.515C281.649 235.857 281.895 237.087 282.387 238.266C282.899 239.445 283.607 240.48 284.498 241.372C285.39 242.263 286.425 242.96 287.594 243.483C288.772 243.975 290.023 244.221 291.345 244.221C292.667 244.221 293.918 243.975 295.096 243.483C296.275 242.97 297.29 242.263 298.151 241.372C299.042 240.48 299.729 239.445 300.221 238.266C300.734 237.087 301 235.837 301 234.515V217.439ZM289.326 239.332C288.69 239.045 288.137 238.676 287.655 238.225C287.204 237.743 286.835 237.19 286.548 236.554C286.292 235.919 286.169 235.242 286.169 234.525C286.169 233.807 286.292 233.151 286.548 232.547C286.835 231.911 287.194 231.368 287.655 230.907C288.137 230.425 288.69 230.056 289.326 229.8H289.336C289.972 229.513 290.638 229.38 291.355 229.38H296.501V234.525C296.501 235.242 296.357 235.909 296.08 236.544C295.824 237.19 295.465 237.743 294.973 238.225C294.522 238.676 293.979 239.045 293.333 239.332C292.729 239.588 292.073 239.711 291.355 239.711C290.638 239.711 289.961 239.588 289.336 239.332H289.326Z" fill="white"/>
<path d="M174.165 90.273C192.234 95.1146 210.807 84.3917 215.648 66.3229C220.49 48.2541 209.767 29.6816 191.698 24.8401C173.629 19.9986 155.057 30.7214 150.215 48.7902C145.374 66.859 156.097 85.4315 174.165 90.273Z" fill="url(#paint0_linear_1742_688)"/>
<path d="M134.508 45.1321C109.825 38.5183 84.4591 53.1632 77.8475 77.8382C71.2358 102.513 85.8785 127.887 110.562 134.501C135.245 141.114 160.61 126.47 167.224 101.787C173.838 77.1035 159.193 51.7379 134.51 45.1241L134.508 45.1321ZM118.687 104.175C110.754 102.05 106.047 93.8968 108.173 85.9638C110.298 78.0308 118.451 73.3238 126.384 75.4494C134.317 77.575 139.024 85.7279 136.899 93.6609C134.773 101.594 126.62 106.301 118.687 104.175Z" fill="url(#paint1_linear_1742_688)"/>
<path d="M150.214 48.7909C155.028 30.8272 173.671 20.0634 191.635 24.8768C209.599 29.6901 221.078 47.5947 215.82 65.9747L215.558 66.6245C218.124 57.0487 212.391 47.1195 202.815 44.5536C193.239 41.9878 183.31 47.7205 180.744 57.2963L170.859 94.1904L168.783 103.116C162.04 128.28 135.929 143.355 110.765 136.613C85.6012 129.87 70.9601 103.875 77.7028 78.7112C73.2801 95.2169 83.3158 112.383 99.8215 116.806C116.327 121.229 133.454 111.34 137.877 94.8348L150.214 48.7909Z" fill="url(#paint2_linear_1742_688)"/>
<path d="M143.352 27.8541C140.833 34.993 133.135 38.7863 126.148 36.3258C119.16 33.8652 115.539 26.082 118.049 18.9409C120.568 11.802 128.274 8.01083 135.261 10.4714C142.249 12.932 145.87 20.7152 143.36 27.8563L143.352 27.8541Z" fill="url(#paint3_linear_1742_688)"/>
<defs>
<linearGradient id="paint0_linear_1742_688" x1="201.158" y1="84.487" x2="183.054" y2="59.8452" gradientUnits="userSpaceOnUse">
<stop stop-color="#AC16F2"/>
<stop offset="0.984375" stop-color="#660FD6"/>
</linearGradient>
<linearGradient id="paint1_linear_1742_688" x1="77.4457" y1="100.579" x2="166.961" y2="59.3417" gradientUnits="userSpaceOnUse">
<stop stop-color="#FFB801"/>
<stop offset="0.505634" stop-color="#AC16F2"/>
<stop offset="1" stop-color="#660FD6"/>
</linearGradient>
<linearGradient id="paint2_linear_1742_688" x1="164.95" y1="55.3184" x2="113.151" y2="134.776" gradientUnits="userSpaceOnUse">
<stop stop-color="#AC16F3"/>
<stop offset="1" stop-color="#FFE500"/>
</linearGradient>
<linearGradient id="paint3_linear_1742_688" x1="121.197" y1="37.7172" x2="135.781" y2="10.058" gradientUnits="userSpaceOnUse">
<stop offset="0.151042" stop-color="#FFE500"/>
<stop offset="0.984375" stop-color="#AC16F2"/>
</linearGradient>
</defs>
</svg>
